<svg xmlns="http://www.w3.org/2000/svg" xmlns:xlink="http://www.w3.org/1999/xlink" width="72" zoomAndPan="magnify" viewBox="0 0 54 54" height="72" preserveAspectRatio="xMidYMid meet" version="1.0"><defs><clipPath id="733549c818"><path d="M 0.492188 0 L 53.507812 0 L 53.507812 53.019531 L 0.492188 53.019531 Z M 0.492188 0 " clip-rule="nonzero"/></clipPath><clipPath id="417e82d84a"><path d="M 27 0 C 12.359375 0 0.492188 11.867188 0.492188 26.507812 C 0.492188 41.148438 12.359375 53.019531 27 53.019531 C 41.640625 53.019531 53.507812 41.148438 53.507812 26.507812 C 53.507812 11.867188 41.640625 0 27 0 Z M 27 0 " clip-rule="nonzero"/></clipPath><clipPath id="9d9ce94b27"><path d="M 13.292969 6.460938 L 40.535156 6.460938 L 40.535156 46.222656 L 13.292969 46.222656 Z M 13.292969 6.460938 " clip-rule="nonzero"/></clipPath></defs><g clip-path="url(#733549c818)"><g clip-path="url(#417e82d84a)"><path fill="#ffffff" d="M 0.492188 0 L 53.507812 0 L 53.507812 53.019531 L 0.492188 53.019531 Z M 0.492188 0 " fill-opacity="1" fill-rule="nonzero"/></g></g><g clip-path="url(#9d9ce94b27)"><path fill="#444caf" d="M 39.777344 23.910156 C 39.539062 23.671875 39.25 23.492188 38.9375 23.378906 L 39.777344 22.539062 C 40.6875 21.625 40.6875 20.144531 39.777344 19.230469 C 39.480469 18.9375 39.109375 18.730469 38.707031 18.628906 L 38.707031 9.800781 C 38.703125 7.957031 37.207031 6.460938 35.363281 6.460938 L 20.664062 6.460938 C 18.816406 6.460938 17.324219 7.957031 17.320312 9.800781 L 17.320312 24.519531 C 16.746094 24.078125 16.042969 23.835938 15.316406 23.835938 L 14.648438 23.835938 C 13.910156 23.835938 13.3125 24.433594 13.3125 25.171875 L 13.3125 34.832031 C 13.304688 37.371094 14.609375 39.730469 16.765625 41.066406 L 17.714844 41.660156 C 18.304688 42.023438 18.660156 42.667969 18.65625 43.359375 L 18.65625 45.886719 C 18.65625 46.257812 18.957031 46.558594 19.324219 46.558594 C 19.695312 46.558594 19.992188 46.257812 19.992188 45.886719 L 19.992188 43.359375 C 19.996094 42.207031 19.402344 41.132812 18.421875 40.527344 L 17.472656 39.933594 C 15.710938 38.839844 14.640625 36.910156 14.648438 34.832031 L 14.648438 25.171875 L 15.316406 25.171875 C 16.421875 25.171875 17.320312 26.070312 17.320312 27.175781 L 17.320312 35.195312 C 17.324219 37.039062 18.816406 38.535156 20.664062 38.539062 L 33.785156 38.539062 C 33.875 38.683594 33.980469 38.816406 34.101562 38.9375 C 35 39.835938 36.453125 39.851562 37.371094 38.96875 L 37.371094 39.695312 C 37.367188 40.402344 37 41.050781 36.394531 41.417969 L 35.648438 41.863281 C 34.644531 42.46875 34.03125 43.554688 34.027344 44.730469 L 34.027344 45.886719 C 34.027344 46.257812 34.328125 46.558594 34.695312 46.558594 C 35.066406 46.558594 35.363281 46.257812 35.363281 45.886719 L 35.363281 44.730469 C 35.367188 44.023438 35.734375 43.375 36.339844 43.007812 L 37.085938 42.5625 C 38.089844 41.957031 38.703125 40.871094 38.707031 39.695312 L 38.707031 37.640625 L 39.777344 36.570312 C 40.6875 35.65625 40.6875 34.175781 39.777344 33.261719 C 39.539062 33.023438 39.253906 32.84375 38.9375 32.726562 L 39.777344 31.894531 C 40.6875 30.980469 40.6875 29.5 39.777344 28.585938 C 39.539062 28.351562 39.253906 28.167969 38.9375 28.050781 L 39.777344 27.21875 C 40.6875 26.300781 40.6875 24.824219 39.777344 23.910156 Z M 38.832031 21.59375 L 36.324219 24.050781 C 35.933594 24.335938 35.394531 24.296875 35.050781 23.957031 C 34.660156 23.566406 34.660156 22.929688 35.050781 22.539062 L 37.414062 20.175781 C 37.804688 19.796875 38.429688 19.800781 38.816406 20.1875 C 39.203125 20.574219 39.210938 21.199219 38.832031 21.59375 Z M 34.101562 29.582031 C 34.339844 29.820312 34.625 30 34.941406 30.117188 L 34.101562 30.949219 C 33.191406 31.863281 33.191406 33.34375 34.101562 34.257812 C 34.203125 34.355469 34.3125 34.445312 34.433594 34.523438 L 21.332031 34.523438 L 21.332031 9.800781 L 22.78125 9.800781 C 23.066406 10.601562 23.824219 11.136719 24.671875 11.136719 L 31.355469 11.136719 C 32.203125 11.136719 32.960938 10.601562 33.246094 9.800781 L 34.695312 9.800781 L 34.695312 21 L 34.101562 21.59375 C 33.191406 22.507812 33.191406 23.988281 34.101562 24.902344 C 34.339844 25.136719 34.625 25.320312 34.941406 25.433594 L 34.101562 26.269531 C 33.1875 27.1875 33.1875 28.667969 34.101562 29.582031 Z M 18.65625 35.195312 L 18.65625 9.800781 C 18.65625 8.695312 19.554688 7.796875 20.664062 7.796875 L 35.363281 7.796875 C 36.472656 7.796875 37.371094 8.695312 37.371094 9.800781 L 37.371094 18.679688 C 37.027344 18.789062 36.71875 18.980469 36.464844 19.230469 L 36.03125 19.664062 L 36.03125 9.800781 C 36.03125 9.0625 35.433594 8.464844 34.695312 8.464844 L 32.691406 8.464844 C 32.324219 8.464844 32.023438 8.761719 32.023438 9.132812 C 32.023438 9.5 31.722656 9.800781 31.355469 9.800781 L 24.671875 9.800781 C 24.304688 9.800781 24.003906 9.5 24.003906 9.132812 C 24.003906 8.761719 23.703125 8.464844 23.335938 8.464844 L 21.332031 8.464844 C 20.59375 8.464844 19.992188 9.0625 19.992188 9.800781 L 19.992188 34.527344 C 19.992188 35.265625 20.59375 35.863281 21.332031 35.863281 L 33.910156 35.863281 C 33.613281 36.25 33.445312 36.714844 33.425781 37.199219 L 20.664062 37.199219 C 19.554688 37.199219 18.65625 36.304688 18.65625 35.195312 Z M 38.828125 34.210938 C 39.21875 34.601562 39.21875 35.234375 38.828125 35.628906 L 36.464844 37.992188 C 36.070312 38.371094 35.445312 38.363281 35.058594 37.976562 C 34.671875 37.59375 34.667969 36.964844 35.046875 36.574219 L 37.550781 34.117188 C 37.941406 33.832031 38.480469 33.871094 38.828125 34.210938 Z M 38.828125 29.53125 C 39.21875 29.921875 39.21875 30.558594 38.828125 30.949219 L 36.324219 33.40625 C 35.933594 33.691406 35.394531 33.652344 35.046875 33.3125 C 34.65625 32.921875 34.65625 32.285156 35.046875 31.894531 L 37.550781 29.4375 C 37.941406 29.152344 38.480469 29.191406 38.828125 29.53125 Z M 38.828125 26.269531 L 36.324219 28.730469 C 35.933594 29.011719 35.394531 28.972656 35.046875 28.636719 C 34.65625 28.242188 34.65625 27.609375 35.046875 27.21875 L 37.550781 24.761719 C 37.941406 24.476562 38.480469 24.515625 38.828125 24.855469 C 39.21875 25.246094 39.21875 25.878906 38.828125 26.269531 Z M 38.828125 26.269531 " fill-opacity="1" fill-rule="nonzero"/></g><path fill="#444caf" d="M 28.011719 12.472656 C 25.582031 12.472656 23.386719 13.9375 22.457031 16.1875 C 21.527344 18.433594 22.039062 21.019531 23.761719 22.742188 C 25.480469 24.460938 28.066406 24.976562 30.316406 24.046875 C 32.5625 23.113281 34.027344 20.921875 34.027344 18.488281 C 34.023438 15.167969 31.332031 12.476562 28.011719 12.472656 Z M 28.011719 23.167969 C 26.121094 23.167969 24.414062 22.027344 23.691406 20.277344 C 22.96875 18.53125 23.367188 16.519531 24.707031 15.179688 C 26.042969 13.84375 28.054688 13.441406 29.804688 14.167969 C 31.550781 14.890625 32.691406 16.597656 32.691406 18.488281 C 32.6875 21.070312 30.59375 23.164062 28.011719 23.167969 Z M 28.011719 23.167969 " fill-opacity="1" fill-rule="nonzero"/><path fill="#444caf" d="M 32.023438 29.179688 L 29.351562 29.179688 C 28.980469 29.179688 28.683594 29.480469 28.683594 29.847656 L 28.683594 32.523438 C 28.683594 32.890625 28.980469 33.191406 29.351562 33.191406 L 32.023438 33.191406 C 32.390625 33.191406 32.691406 32.890625 32.691406 32.523438 L 32.691406 29.847656 C 32.691406 29.480469 32.390625 29.179688 32.023438 29.179688 Z M 31.355469 31.855469 L 30.019531 31.855469 L 30.019531 30.519531 L 31.355469 30.519531 Z M 31.355469 31.855469 " fill-opacity="1" fill-rule="nonzero"/><path fill="#444caf" d="M 26.675781 29.179688 L 24.003906 29.179688 C 23.636719 29.179688 23.335938 29.480469 23.335938 29.847656 L 23.335938 32.523438 C 23.335938 32.890625 23.636719 33.191406 24.003906 33.191406 L 26.675781 33.191406 C 27.046875 33.191406 27.34375 32.890625 27.34375 32.523438 L 27.34375 29.847656 C 27.34375 29.480469 27.046875 29.179688 26.675781 29.179688 Z M 26.007812 31.855469 L 24.671875 31.855469 L 24.671875 30.519531 L 26.007812 30.519531 Z M 26.007812 31.855469 " fill-opacity="1" fill-rule="nonzero"/><path fill="#444caf" d="M 28.011719 17.820312 C 27.742188 17.820312 27.5 17.65625 27.394531 17.40625 C 27.292969 17.15625 27.351562 16.871094 27.539062 16.679688 C 27.730469 16.488281 28.019531 16.429688 28.269531 16.535156 C 28.519531 16.636719 28.683594 16.882812 28.683594 17.152344 C 28.683594 17.519531 28.980469 17.820312 29.351562 17.820312 C 29.71875 17.820312 30.019531 17.519531 30.019531 17.152344 C 30.015625 16.304688 29.480469 15.550781 28.683594 15.269531 L 28.683594 14.480469 C 28.683594 14.109375 28.382812 13.8125 28.011719 13.8125 C 27.644531 13.8125 27.34375 14.109375 27.34375 14.480469 L 27.34375 15.269531 C 26.425781 15.59375 25.875 16.535156 26.039062 17.496094 C 26.203125 18.457031 27.039062 19.160156 28.011719 19.15625 C 28.285156 19.15625 28.527344 19.320312 28.628906 19.570312 C 28.734375 19.820312 28.675781 20.105469 28.484375 20.296875 C 28.296875 20.488281 28.007812 20.546875 27.757812 20.441406 C 27.507812 20.339844 27.34375 20.09375 27.34375 19.824219 C 27.34375 19.457031 27.046875 19.15625 26.675781 19.15625 C 26.308594 19.15625 26.007812 19.457031 26.007812 19.824219 C 26.011719 20.671875 26.546875 21.425781 27.34375 21.707031 L 27.34375 22.5 C 27.34375 22.867188 27.644531 23.167969 28.011719 23.167969 C 28.382812 23.167969 28.683594 22.867188 28.683594 22.5 L 28.683594 21.707031 C 29.601562 21.382812 30.152344 20.441406 29.988281 19.480469 C 29.824219 18.519531 28.988281 17.820312 28.011719 17.820312 Z M 28.011719 17.820312 " fill-opacity="1" fill-rule="nonzero"/></svg>