<svg xmlns="http://www.w3.org/2000/svg" xmlns:xlink="http://www.w3.org/1999/xlink" width="72" zoomAndPan="magnify" viewBox="0 0 54 54" height="72" preserveAspectRatio="xMidYMid meet" version="1.0"><defs><clipPath id="1ed36bfac2"><path d="M 0.492188 0 L 53.507812 0 L 53.507812 53.019531 L 0.492188 53.019531 Z M 0.492188 0 " clip-rule="nonzero"/></clipPath><clipPath id="d3253ce024"><path d="M 27 0 C 12.359375 0 0.492188 11.867188 0.492188 26.507812 C 0.492188 41.148438 12.359375 53.019531 27 53.019531 C 41.640625 53.019531 53.507812 41.148438 53.507812 26.507812 C 53.507812 11.867188 41.640625 0 27 0 Z M 27 0 " clip-rule="nonzero"/></clipPath><clipPath id="34c778ec11"><path d="M 7.882812 7.4375 L 46.171875 7.4375 L 46.171875 45.730469 L 7.882812 45.730469 Z M 7.882812 7.4375 " clip-rule="nonzero"/></clipPath></defs><g clip-path="url(#1ed36bfac2)"><g clip-path="url(#d3253ce024)"><path fill="#ffffff" d="M 0.492188 0 L 53.507812 0 L 53.507812 53.019531 L 0.492188 53.019531 Z M 0.492188 0 " fill-opacity="1" fill-rule="nonzero"/></g></g><g clip-path="url(#34c778ec11)"><path fill="#444caf" d="M 18.273438 17.769531 C 18.191406 17.285156 18.148438 16.792969 18.148438 16.292969 C 18.148438 11.410156 22.121094 7.4375 27.003906 7.4375 C 31.882812 7.4375 35.855469 11.410156 35.855469 16.292969 C 35.855469 16.785156 35.8125 17.285156 35.730469 17.769531 C 35.671875 18.101562 35.386719 18.335938 35.0625 18.335938 C 35.027344 18.335938 34.988281 18.335938 34.945312 18.328125 C 34.578125 18.269531 34.328125 17.910156 34.386719 17.542969 C 34.453125 17.132812 34.488281 16.714844 34.488281 16.292969 C 34.488281 12.160156 31.125 8.796875 26.996094 8.796875 C 22.863281 8.796875 19.5 12.160156 19.5 16.292969 C 19.5 16.707031 19.535156 17.132812 19.601562 17.542969 C 19.660156 17.910156 19.417969 18.269531 19.042969 18.328125 C 18.675781 18.386719 18.332031 18.136719 18.273438 17.769531 Z M 45.984375 29.550781 C 45.875 29.898438 45.640625 30.183594 45.324219 30.359375 L 41.730469 32.292969 C 41.527344 32.402344 41.304688 32.460938 41.085938 32.460938 C 40.953125 32.460938 40.820312 32.445312 40.695312 32.402344 C 40.492188 32.34375 40.328125 32.234375 40.175781 32.101562 L 38.882812 33.488281 C 39.609375 34.429688 39.578125 35.40625 39.210938 36.132812 C 38.851562 36.824219 38.199219 37.324219 37.507812 37.527344 C 37.65625 38.226562 37.457031 38.953125 36.90625 39.511719 C 36.421875 40.003906 35.722656 40.3125 34.953125 40.261719 C 34.921875 40.722656 34.710938 41.136719 34.410156 41.464844 C 33.878906 42.03125 33.027344 42.347656 32.160156 42.246094 C 32.132812 42.757812 31.917969 43.230469 31.507812 43.609375 C 31.03125 44.058594 30.324219 44.324219 29.554688 44.324219 C 29.195312 44.324219 28.828125 44.257812 28.460938 44.132812 C 28.378906 44.25 28.296875 44.367188 28.1875 44.46875 L 27.746094 44.910156 C 27.304688 45.351562 26.726562 45.570312 26.144531 45.570312 C 25.566406 45.570312 24.984375 45.351562 24.542969 44.910156 C 24.242188 44.609375 24.050781 44.242188 23.957031 43.859375 C 23.730469 43.925781 23.507812 43.976562 23.28125 43.976562 C 22.707031 43.976562 22.121094 43.757812 21.679688 43.316406 C 21.328125 42.964844 21.121094 42.523438 21.054688 42.074219 C 20.921875 42.097656 20.785156 42.113281 20.644531 42.113281 C 20.070312 42.113281 19.484375 41.898438 19.042969 41.457031 C 18.640625 41.054688 18.433594 40.527344 18.390625 40.003906 C 18.351562 40.003906 18.308594 40.011719 18.265625 40.011719 C 17.65625 40.011719 17.089844 39.777344 16.664062 39.351562 C 15.839844 38.527344 15.796875 37.226562 16.515625 36.332031 L 13.621094 32.253906 C 13.519531 32.320312 13.410156 32.378906 13.285156 32.410156 C 13.152344 32.453125 13.027344 32.46875 12.894531 32.46875 C 12.667969 32.46875 12.453125 32.410156 12.25 32.300781 L 8.671875 30.359375 C 8.355469 30.183594 8.121094 29.898438 8.011719 29.550781 C 7.90625 29.199219 7.945312 28.832031 8.121094 28.515625 L 13.300781 18.886719 C 13.476562 18.570312 13.761719 18.335938 14.113281 18.226562 C 14.460938 18.117188 14.828125 18.160156 15.148438 18.335938 L 18.742188 20.269531 C 19.058594 20.445312 19.292969 20.730469 19.402344 21.082031 C 19.511719 21.429688 19.46875 21.796875 19.292969 22.113281 L 19.25 22.191406 C 19.800781 22.582031 20.1875 22.75 20.828125 22.675781 C 21.855469 22.53125 25.351562 22.125 26.851562 22.765625 C 26.902344 22.789062 26.945312 22.816406 26.996094 22.839844 C 27.054688 22.808594 27.101562 22.773438 27.167969 22.75 C 28.6875 22.105469 32.191406 22.515625 33.226562 22.65625 C 33.835938 22.722656 34.21875 22.574219 34.746094 22.199219 L 34.695312 22.113281 C 34.519531 21.796875 34.488281 21.421875 34.585938 21.082031 C 34.695312 20.730469 34.929688 20.445312 35.246094 20.269531 L 38.84375 18.335938 C 39.160156 18.160156 39.527344 18.125 39.875 18.226562 C 40.226562 18.335938 40.511719 18.570312 40.6875 18.886719 L 45.867188 28.515625 C 46.050781 28.839844 46.09375 29.207031 45.984375 29.550781 Z M 27.71875 24 C 26.144531 24.726562 25.242188 27.40625 24.417969 30.433594 C 25.152344 30.660156 25.710938 30.675781 26.160156 30.484375 C 26.886719 30.167969 27.511719 29.257812 28.195312 27.511719 L 28.496094 26.753906 L 37.742188 32.46875 C 37.789062 32.503906 37.832031 32.535156 37.882812 32.570312 L 39.433594 30.902344 L 35.394531 23.398438 C 34.769531 23.824219 34.070312 24.117188 33.058594 24 C 30.25 23.625 28.355469 23.726562 27.71875 24 Z M 12.910156 31.101562 L 18.09375 21.472656 L 14.496094 19.535156 L 9.316406 29.15625 Z M 18.925781 38.375 L 19.042969 38.257812 C 19.050781 38.25 19.050781 38.25 19.058594 38.242188 L 19.777344 37.527344 C 20.121094 37.175781 20.121094 36.609375 19.769531 36.257812 C 19.417969 35.90625 18.84375 35.90625 18.492188 36.257812 L 17.648438 37.101562 C 17.300781 37.449219 17.300781 38.027344 17.648438 38.375 C 17.992188 38.71875 18.585938 38.71875 18.925781 38.375 Z M 21.296875 40.480469 L 22.90625 38.867188 C 23.257812 38.519531 23.257812 37.941406 22.90625 37.59375 C 22.730469 37.417969 22.496094 37.324219 22.273438 37.324219 C 22.046875 37.324219 21.8125 37.417969 21.636719 37.59375 L 20.746094 38.476562 C 20.738281 38.484375 20.738281 38.484375 20.726562 38.492188 L 20.011719 39.210938 C 19.667969 39.5625 19.667969 40.128906 20.019531 40.480469 C 20.371094 40.828125 20.945312 40.828125 21.296875 40.480469 Z M 23.933594 42.347656 L 24.507812 41.773438 C 24.523438 41.753906 24.542969 41.730469 24.558594 41.707031 L 24.800781 41.464844 C 25.117188 41.113281 25.117188 40.5625 24.773438 40.21875 C 24.425781 39.871094 23.847656 39.871094 23.5 40.21875 L 22.65625 41.0625 C 22.304688 41.414062 22.304688 41.988281 22.65625 42.339844 C 23.007812 42.699219 23.582031 42.699219 23.933594 42.347656 Z M 27.269531 43.449219 C 27.261719 43.441406 27.246094 43.433594 27.234375 43.425781 L 27.4375 43.191406 C 27.5625 42.867188 27.496094 42.488281 27.234375 42.222656 C 27.070312 42.054688 26.84375 41.964844 26.601562 41.964844 C 26.359375 41.964844 26.136719 42.054688 25.96875 42.222656 L 25.792969 42.398438 C 25.777344 42.414062 25.757812 42.441406 25.742188 42.457031 L 25.5 42.699219 C 25.175781 43.046875 25.183594 43.597656 25.527344 43.941406 C 25.875 44.292969 26.453125 44.292969 26.800781 43.941406 L 27.246094 43.5 C 27.253906 43.484375 27.261719 43.464844 27.269531 43.449219 Z M 37.015625 33.621094 L 29.148438 28.757812 C 28.414062 30.410156 27.660156 31.316406 26.695312 31.734375 C 25.785156 32.128906 24.714844 32.050781 23.339844 31.492188 L 22.78125 31.269531 L 22.929688 30.683594 C 23.671875 27.863281 24.433594 25.367188 25.71875 23.867188 C 24.816406 23.726562 23.191406 23.726562 20.988281 24.027344 C 19.9375 24.140625 19.234375 23.832031 18.59375 23.390625 L 14.460938 31.058594 L 17.484375 35.3125 L 17.515625 35.28125 C 18.402344 34.398438 19.835938 34.398438 20.71875 35.28125 C 20.988281 35.546875 21.164062 35.855469 21.261719 36.191406 C 22.105469 35.773438 23.15625 35.90625 23.855469 36.617188 C 24.398438 37.160156 24.609375 37.917969 24.484375 38.625 C 24.941406 38.703125 25.375 38.902344 25.726562 39.253906 C 26.109375 39.636719 26.320312 40.128906 26.367188 40.636719 C 27.027344 40.578125 27.710938 40.78125 28.1875 41.253906 C 28.605469 41.671875 28.828125 42.222656 28.847656 42.816406 C 29.554688 43.074219 30.25 42.90625 30.574219 42.597656 C 30.949219 42.246094 30.78125 41.796875 30.539062 41.464844 L 29.53125 40.738281 C 29.230469 40.519531 29.15625 40.09375 29.378906 39.785156 C 29.597656 39.476562 30.023438 39.410156 30.332031 39.636719 L 31.433594 40.429688 C 31.457031 40.445312 31.464844 40.46875 31.492188 40.488281 L 31.5 40.480469 C 32.183594 41.105469 33.042969 40.90625 33.410156 40.511719 C 33.6875 40.21875 33.628906 39.886719 33.261719 39.527344 L 31.449219 38.25 C 31.140625 38.035156 31.066406 37.609375 31.28125 37.300781 C 31.5 36.992188 31.925781 36.917969 32.234375 37.132812 L 34.101562 38.453125 C 34.121094 38.46875 34.128906 38.484375 34.144531 38.5 L 34.152344 38.492188 C 34.828125 39.078125 35.546875 38.925781 35.921875 38.535156 C 36.054688 38.402344 36.449219 37.902344 35.886719 37.273438 L 35.855469 37.234375 L 33.425781 35.671875 C 33.109375 35.472656 33.019531 35.046875 33.226562 34.730469 C 33.425781 34.414062 33.851562 34.320312 34.167969 34.53125 L 36.796875 36.222656 C 37.183594 36.265625 37.742188 35.972656 37.992188 35.488281 C 38.417969 34.6875 37.558594 33.972656 37.015625 33.621094 Z M 44.683594 29.15625 L 39.5 19.527344 L 35.90625 21.464844 L 41.085938 31.09375 Z M 41.945312 29.40625 C 42.511719 29.40625 42.964844 28.949219 42.964844 28.390625 C 42.964844 27.820312 42.503906 27.371094 41.945312 27.371094 C 41.386719 27.371094 40.929688 27.832031 40.929688 28.390625 C 40.929688 28.949219 41.378906 29.40625 41.945312 29.40625 Z M 12.050781 27.363281 C 11.484375 27.363281 11.035156 27.820312 11.035156 28.382812 C 11.035156 28.949219 11.492188 29.398438 12.050781 29.398438 C 12.609375 29.398438 13.070312 28.941406 13.070312 28.382812 C 13.078125 27.820312 12.617188 27.363281 12.050781 27.363281 Z M 29.679688 17.992188 C 29.679688 16.683594 28.613281 15.605469 27.292969 15.605469 L 26.609375 15.605469 C 26.042969 15.605469 25.59375 15.148438 25.59375 14.589844 C 25.59375 14.023438 26.050781 13.570312 26.609375 13.570312 L 27.292969 13.570312 C 27.621094 13.570312 27.921875 13.722656 28.113281 13.980469 C 28.335938 14.28125 28.761719 14.339844 29.0625 14.113281 C 29.363281 13.886719 29.421875 13.460938 29.195312 13.164062 C 28.8125 12.652344 28.246094 12.335938 27.621094 12.253906 C 27.621094 12.234375 27.628906 12.226562 27.628906 12.210938 L 27.628906 11.527344 C 27.628906 11.152344 27.328125 10.84375 26.945312 10.84375 C 26.570312 10.84375 26.261719 11.152344 26.261719 11.527344 L 26.261719 12.210938 C 26.261719 12.21875 26.269531 12.234375 26.269531 12.246094 C 25.117188 12.410156 24.214844 13.394531 24.214844 14.597656 C 24.214844 15.90625 25.285156 16.984375 26.601562 16.984375 L 27.285156 16.984375 C 27.855469 16.984375 28.304688 17.441406 28.304688 18 C 28.304688 18.5625 27.84375 19.019531 27.285156 19.019531 L 26.601562 19.019531 C 26.277344 19.019531 25.976562 18.871094 25.785156 18.609375 C 25.558594 18.308594 25.132812 18.25 24.832031 18.476562 C 24.53125 18.703125 24.472656 19.128906 24.699219 19.429688 C 25.082031 19.945312 25.652344 20.253906 26.277344 20.347656 C 26.277344 20.363281 26.269531 20.371094 26.269531 20.386719 L 26.269531 21.070312 C 26.269531 21.449219 26.570312 21.757812 26.953125 21.757812 C 27.328125 21.757812 27.636719 21.449219 27.636719 21.070312 L 27.636719 20.371094 C 27.636719 20.363281 27.628906 20.347656 27.628906 20.335938 C 28.789062 20.179688 29.679688 19.195312 29.679688 17.992188 Z M 29.679688 17.992188 " fill-opacity="1" fill-rule="nonzero"/></g></svg>