<svg xmlns="http://www.w3.org/2000/svg" xmlns:xlink="http://www.w3.org/1999/xlink" width="72" zoomAndPan="magnify" viewBox="0 0 54 54" height="72" preserveAspectRatio="xMidYMid meet" version="1.0"><defs><clipPath id="811b92dbe8"><path d="M 0.492188 0 L 53.507812 0 L 53.507812 53.019531 L 0.492188 53.019531 Z M 0.492188 0 " clip-rule="nonzero"/></clipPath><clipPath id="dbf481a969"><path d="M 27 0 C 12.359375 0 0.492188 11.867188 0.492188 26.507812 C 0.492188 41.148438 12.359375 53.019531 27 53.019531 C 41.640625 53.019531 53.507812 41.148438 53.507812 26.507812 C 53.507812 11.867188 41.640625 0 27 0 Z M 27 0 " clip-rule="nonzero"/></clipPath><clipPath id="4040facc5f"><path d="M 7.9375 8.207031 L 46.226562 8.207031 L 46.226562 45 L 7.9375 45 Z M 7.9375 8.207031 " clip-rule="nonzero"/></clipPath></defs><g clip-path="url(#811b92dbe8)"><g clip-path="url(#dbf481a969)"><path fill="#ffffff" d="M 0.492188 0 L 53.507812 0 L 53.507812 53.019531 L 0.492188 53.019531 Z M 0.492188 0 " fill-opacity="1" fill-rule="nonzero"/></g></g><g clip-path="url(#4040facc5f)"><path fill="#444caf" d="M 46.046875 25.214844 C 46.046875 24.398438 45.605469 23.683594 44.949219 23.296875 C 45.214844 22.929688 45.371094 22.480469 45.371094 21.996094 C 45.371094 20.769531 44.371094 19.769531 43.144531 19.769531 L 39.132812 19.769531 C 38.777344 19.769531 38.433594 19.855469 38.125 20.011719 C 38.375 19.542969 38.515625 19.097656 38.5625 18.757812 C 38.566406 18.730469 38.566406 18.699219 38.566406 18.671875 L 38.566406 16.050781 C 38.566406 13.480469 36.472656 11.386719 33.902344 11.386719 C 33.5625 11.386719 33.285156 11.660156 33.285156 12 L 33.285156 12.382812 C 32.308594 11.894531 31.28125 11.507812 30.222656 11.234375 L 29.210938 8.601562 C 29.117188 8.363281 28.890625 8.207031 28.636719 8.207031 L 23.847656 8.207031 C 23.59375 8.207031 23.367188 8.363281 23.277344 8.601562 L 22.261719 11.234375 C 20.855469 11.597656 19.511719 12.15625 18.257812 12.894531 L 15.679688 11.746094 C 15.445312 11.644531 15.175781 11.695312 14.996094 11.875 L 11.609375 15.257812 C 11.429688 15.441406 11.378906 15.710938 11.484375 15.945312 L 12.628906 18.523438 C 11.890625 19.777344 11.335938 21.121094 10.96875 22.527344 L 8.335938 23.539062 C 8.097656 23.632812 7.941406 23.859375 7.941406 24.113281 L 7.941406 28.902344 C 7.941406 29.15625 8.097656 29.382812 8.335938 29.472656 L 10.96875 30.488281 C 11.335938 31.894531 11.890625 33.238281 12.628906 34.492188 L 11.484375 37.070312 C 11.378906 37.304688 11.429688 37.574219 11.609375 37.753906 L 14.996094 41.140625 C 15.175781 41.320312 15.445312 41.371094 15.679688 41.265625 L 18.257812 40.121094 C 19.511719 40.859375 20.855469 41.417969 22.261719 41.78125 L 23.277344 44.414062 C 23.367188 44.652344 23.59375 44.808594 23.847656 44.808594 L 28.636719 44.808594 C 28.890625 44.808594 29.117188 44.652344 29.210938 44.414062 L 30.222656 41.78125 C 31.628906 41.414062 32.972656 40.859375 34.226562 40.121094 L 36.804688 41.265625 C 37.039062 41.371094 37.308594 41.320312 37.488281 41.140625 L 40.875 37.753906 C 41.054688 37.574219 41.105469 37.304688 41.003906 37.070312 L 39.855469 34.492188 C 39.976562 34.289062 40.089844 34.085938 40.199219 33.878906 L 41.734375 33.878906 C 42.324219 33.878906 42.882812 33.648438 43.304688 33.226562 C 43.726562 32.804688 43.957031 32.246094 43.957031 31.65625 C 43.957031 31.214844 43.828125 30.808594 43.609375 30.460938 C 44.378906 30.113281 44.917969 29.335938 44.917969 28.433594 C 44.917969 28.019531 44.804688 27.628906 44.605469 27.296875 C 45.445312 26.980469 46.046875 26.167969 46.046875 25.214844 Z M 38.429688 21.292969 C 38.621094 21.101562 38.871094 21 39.132812 21 L 43.144531 21 C 43.695312 21 44.140625 21.445312 44.140625 21.996094 C 44.140625 22.542969 43.695312 22.988281 43.144531 22.988281 L 39.132812 22.988281 C 38.585938 22.988281 38.136719 22.542969 38.136719 21.996094 C 38.136719 21.730469 38.242188 21.480469 38.429688 21.292969 Z M 34.515625 12.667969 C 36.117188 12.960938 37.339844 14.367188 37.339844 16.050781 L 37.339844 18.625 C 37.269531 19.039062 36.988281 19.707031 36.394531 20.300781 C 36.1875 20.511719 36.15625 20.839844 36.324219 21.082031 C 36.816406 21.804688 36.984375 22.480469 36.832031 23.140625 C 36.542969 24.40625 35.132812 25.335938 34.539062 25.675781 C 34.246094 25.847656 34.144531 26.222656 34.3125 26.515625 C 34.484375 26.8125 34.859375 26.914062 35.152344 26.742188 C 35.488281 26.550781 35.917969 26.273438 36.34375 25.917969 C 36.515625 26.429688 36.871094 26.863281 37.332031 27.132812 C 37.066406 27.5 36.910156 27.949219 36.910156 28.433594 C 36.910156 29.066406 37.175781 29.640625 37.601562 30.046875 C 37.585938 30.058594 37.574219 30.070312 37.5625 30.082031 C 37.140625 30.503906 36.910156 31.0625 36.910156 31.65625 C 36.910156 32.066406 37.023438 32.464844 37.230469 32.808594 C 33.949219 33.367188 31.980469 33.558594 30.015625 31.804688 L 30.015625 21.253906 C 30.234375 21.09375 30.457031 20.9375 30.6875 20.773438 C 32.484375 19.507812 34.515625 18.078125 34.515625 15.378906 Z M 28.789062 21.558594 L 28.789062 31.457031 L 25.726562 31.457031 L 25.726562 21.558594 Z M 29.199219 20.328125 L 25.113281 20.328125 C 24.773438 20.328125 24.5 20.601562 24.5 20.941406 L 24.5 32.070312 C 24.5 32.410156 24.773438 32.6875 25.113281 32.6875 L 29.160156 32.6875 C 29.652344 33.132812 30.148438 33.476562 30.648438 33.734375 C 29.328125 34.546875 27.824219 34.972656 26.242188 34.972656 C 21.574219 34.972656 17.777344 31.175781 17.777344 26.507812 C 17.777344 21.839844 21.574219 18.042969 26.242188 18.042969 C 27.820312 18.042969 29.332031 18.472656 30.65625 19.285156 C 30.4375 19.449219 29.457031 20.136719 29.199219 20.328125 Z M 36.917969 39.972656 L 34.433594 38.867188 C 34.246094 38.785156 34.035156 38.800781 33.863281 38.90625 C 32.546875 39.714844 31.121094 40.308594 29.621094 40.664062 C 29.425781 40.710938 29.261719 40.851562 29.191406 41.042969 L 28.214844 43.578125 L 24.269531 43.578125 L 23.292969 41.042969 C 23.222656 40.851562 23.0625 40.710938 22.863281 40.664062 C 21.363281 40.308594 19.9375 39.71875 18.621094 38.90625 C 18.449219 38.800781 18.234375 38.785156 18.050781 38.867188 L 15.566406 39.972656 L 12.777344 37.183594 L 13.882812 34.699219 C 13.964844 34.511719 13.949219 34.300781 13.84375 34.125 C 13.035156 32.8125 12.441406 31.386719 12.085938 29.886719 C 12.039062 29.691406 11.898438 29.527344 11.707031 29.457031 L 9.171875 28.480469 L 9.171875 24.535156 L 11.707031 23.558594 C 11.898438 23.488281 12.039062 23.324219 12.085938 23.128906 C 12.441406 21.628906 13.035156 20.203125 13.84375 18.886719 C 13.949219 18.714844 13.964844 18.503906 13.882812 18.316406 L 12.777344 15.832031 L 15.566406 13.042969 L 18.050781 14.148438 C 18.238281 14.230469 18.449219 14.214844 18.625 14.109375 C 19.9375 13.296875 21.363281 12.707031 22.863281 12.351562 C 23.058594 12.304688 23.222656 12.164062 23.292969 11.972656 L 24.269531 9.4375 L 28.214844 9.4375 L 29.191406 11.972656 C 29.261719 12.160156 29.425781 12.304688 29.621094 12.351562 C 30.902344 12.65625 32.132812 13.132812 33.285156 13.773438 L 33.285156 15.378906 C 33.285156 16.710938 32.613281 17.65625 31.675781 18.484375 C 30.070312 17.390625 28.203125 16.816406 26.242188 16.816406 C 20.898438 16.816406 16.550781 21.164062 16.550781 26.507812 C 16.550781 31.851562 20.898438 36.199219 26.242188 36.199219 C 28.339844 36.199219 30.398438 35.511719 32.070312 34.25 C 32.617188 34.375 33.183594 34.429688 33.78125 34.429688 C 35.085938 34.429688 36.53125 34.179688 38.21875 33.886719 L 38.609375 33.816406 C 38.675781 33.832031 38.738281 33.847656 38.804688 33.855469 C 38.75 33.945312 38.695312 34.039062 38.640625 34.128906 C 38.535156 34.300781 38.519531 34.515625 38.601562 34.699219 L 39.707031 37.183594 Z M 42.433594 32.359375 C 42.246094 32.546875 41.996094 32.648438 41.734375 32.648438 L 39.132812 32.648438 C 38.871094 32.648438 38.621094 32.546875 38.429688 32.359375 C 38.242188 32.167969 38.136719 31.917969 38.136719 31.65625 C 38.136719 31.390625 38.242188 31.140625 38.429688 30.953125 C 38.621094 30.761719 38.871094 30.660156 39.132812 30.660156 C 39.132812 30.660156 39.136719 30.660156 39.136719 30.660156 L 41.730469 30.660156 C 41.734375 30.660156 41.734375 30.660156 41.734375 30.660156 C 42.28125 30.660156 42.726562 31.105469 42.726562 31.65625 C 42.726562 31.917969 42.625 32.167969 42.433594 32.359375 Z M 42.691406 29.429688 L 39.132812 29.429688 C 38.585938 29.429688 38.136719 28.984375 38.136719 28.433594 C 38.136719 27.886719 38.585938 27.4375 39.132812 27.4375 L 42.691406 27.4375 C 43.242188 27.4375 43.6875 27.886719 43.6875 28.433594 C 43.6875 28.984375 43.242188 29.429688 42.691406 29.429688 Z M 43.824219 26.210938 L 38.457031 26.210938 C 37.90625 26.210938 37.460938 25.761719 37.460938 25.214844 C 37.460938 24.664062 37.90625 24.21875 38.457031 24.21875 L 43.824219 24.21875 C 44.371094 24.21875 44.820312 24.664062 44.820312 25.214844 C 44.820312 25.761719 44.371094 26.210938 43.824219 26.210938 Z M 43.824219 26.210938 " fill-opacity="1" fill-rule="nonzero"/></g></svg>