<svg xmlns="http://www.w3.org/2000/svg" xmlns:xlink="http://www.w3.org/1999/xlink" width="72" zoomAndPan="magnify" viewBox="0 0 54 54" height="72" preserveAspectRatio="xMidYMid meet" version="1.0"><defs><clipPath id="415d7fccae"><path d="M 0.492188 0 L 53.507812 0 L 53.507812 53.019531 L 0.492188 53.019531 Z M 0.492188 0 " clip-rule="nonzero"/></clipPath><clipPath id="53d03c3898"><path d="M 27 0 C 12.359375 0 0.492188 11.867188 0.492188 26.507812 C 0.492188 41.148438 12.359375 53.019531 27 53.019531 C 41.640625 53.019531 53.507812 41.148438 53.507812 26.507812 C 53.507812 11.867188 41.640625 0 27 0 Z M 27 0 " clip-rule="nonzero"/></clipPath><clipPath id="471b75aebd"><path d="M 8.421875 8.40625 L 45.242188 8.40625 L 45.242188 44.488281 L 8.421875 44.488281 Z M 8.421875 8.40625 " clip-rule="nonzero"/></clipPath></defs><g clip-path="url(#415d7fccae)"><g clip-path="url(#53d03c3898)"><path fill="#ffffff" d="M 0.492188 0 L 53.507812 0 L 53.507812 53.019531 L 0.492188 53.019531 Z M 0.492188 0 " fill-opacity="1" fill-rule="nonzero"/></g></g><g clip-path="url(#471b75aebd)"><path fill="#444caf" d="M 27.09375 24.382812 C 27.148438 24.398438 27.207031 24.40625 27.269531 24.40625 C 27.328125 24.40625 27.382812 24.398438 27.4375 24.382812 C 29.167969 23.8125 30.652344 22.855469 31.890625 21.519531 C 33.175781 20.164062 33.882812 18.71875 33.882812 17.453125 L 33.882812 12.246094 C 33.882812 12 33.773438 11.820312 33.554688 11.707031 L 27.550781 8.53125 C 27.363281 8.433594 27.171875 8.433594 26.984375 8.53125 L 21.019531 11.6875 C 20.777344 11.792969 20.65625 11.980469 20.65625 12.246094 L 20.65625 17.453125 C 20.65625 18.722656 21.363281 20.164062 22.644531 21.519531 C 23.882812 22.855469 25.363281 23.808594 27.09375 24.382812 Z M 21.878906 12.613281 L 27.269531 9.761719 L 32.65625 12.613281 L 32.65625 17.453125 C 32.65625 18.410156 32.070312 19.558594 31.007812 20.6875 C 29.960938 21.8125 28.714844 22.636719 27.269531 23.160156 C 25.820312 22.636719 24.574219 21.8125 23.527344 20.6875 C 22.464844 19.558594 21.878906 18.410156 21.878906 17.453125 Z M 23.894531 17.25 C 23.792969 17.113281 23.753906 16.960938 23.78125 16.792969 C 23.808594 16.625 23.890625 16.488281 24.027344 16.390625 C 24.167969 16.292969 24.320312 16.257812 24.488281 16.289062 C 24.65625 16.316406 24.789062 16.402344 24.882812 16.542969 L 25.742188 17.742188 L 29.714844 13.761719 C 29.835938 13.644531 29.980469 13.585938 30.148438 13.585938 C 30.3125 13.585938 30.457031 13.644531 30.578125 13.757812 C 30.699219 13.875 30.757812 14.019531 30.757812 14.1875 C 30.757812 14.355469 30.699219 14.5 30.582031 14.621094 L 26.097656 19.109375 C 25.976562 19.226562 25.835938 19.289062 25.667969 19.289062 C 25.5 19.289062 25.355469 19.230469 25.234375 19.113281 C 25.210938 19.085938 25.1875 19.058594 25.167969 19.03125 Z M 45.578125 25.546875 C 45.582031 24.769531 45.308594 24.105469 44.757812 23.554688 C 44.226562 23.019531 43.582031 22.746094 42.828125 22.734375 C 42.808594 22.546875 42.769531 22.367188 42.710938 22.191406 C 42.570312 21.761719 42.335938 21.386719 42.015625 21.070312 L 42.011719 21.070312 C 41.460938 20.519531 40.796875 20.246094 40.019531 20.25 L 40.019531 20.246094 C 39.242188 20.246094 38.578125 20.519531 38.027344 21.070312 L 30.90625 28.191406 L 17.992188 28.203125 C 17.976562 28.199219 17.960938 28.199219 17.945312 28.199219 C 17.539062 28.167969 17.144531 28.226562 16.761719 28.371094 C 16.394531 28.503906 16.074219 28.707031 15.792969 28.976562 L 8.597656 36.171875 C 8.46875 36.300781 8.414062 36.457031 8.425781 36.636719 L 8.425781 43.960938 L 8.421875 44.011719 C 8.421875 44.175781 8.480469 44.316406 8.597656 44.433594 C 8.714844 44.550781 8.855469 44.609375 9.019531 44.609375 L 15.539062 44.609375 C 15.707031 44.609375 15.851562 44.546875 15.96875 44.425781 L 17.589844 42.738281 L 32.519531 38.980469 C 33.042969 38.800781 33.523438 38.539062 33.960938 38.195312 C 34.429688 37.835938 34.867188 37.445312 35.273438 37.019531 L 35.28125 37.011719 C 35.300781 36.996094 35.316406 36.980469 35.332031 36.964844 L 44.757812 27.539062 C 45.308594 26.988281 45.582031 26.324219 45.582031 25.546875 Z M 38.875 21.914062 C 39.195312 21.597656 39.578125 21.441406 40.023438 21.441406 C 40.375 21.441406 40.695312 21.546875 40.980469 21.753906 C 41.265625 21.957031 41.464844 22.226562 41.582031 22.558594 C 41.621094 22.691406 41.648438 22.824219 41.652344 22.960938 C 41.324219 23.101562 41.03125 23.296875 40.777344 23.550781 L 33.9375 30.390625 C 33.816406 29.859375 33.566406 29.402344 33.179688 29.015625 C 32.9375 28.773438 32.660156 28.582031 32.347656 28.441406 Z M 44.386719 25.550781 C 44.390625 25.996094 44.230469 26.378906 43.914062 26.699219 L 34.488281 36.121094 C 34.480469 36.128906 34.472656 36.140625 34.464844 36.148438 C 34.457031 36.160156 34.4375 36.175781 34.421875 36.1875 C 34.058594 36.570312 33.667969 36.921875 33.25 37.242188 C 32.929688 37.496094 32.582031 37.691406 32.195312 37.832031 L 17.136719 41.621094 C 17.015625 41.652344 16.914062 41.714844 16.832031 41.808594 L 15.289062 43.414062 L 9.613281 43.414062 L 9.613281 36.84375 L 16.625 29.832031 C 16.785156 29.679688 16.96875 29.566406 17.175781 29.488281 C 17.398438 29.40625 17.628906 29.375 17.863281 29.390625 C 17.875 29.390625 17.886719 29.390625 17.898438 29.390625 C 17.921875 29.394531 17.949219 29.394531 17.972656 29.394531 L 31.1875 29.382812 L 31.1875 29.386719 C 31.632812 29.386719 32.015625 29.546875 32.332031 29.863281 C 32.648438 30.179688 32.808594 30.5625 32.8125 31.011719 L 32.808594 31.011719 C 32.808594 31.226562 32.765625 31.433594 32.683594 31.632812 C 32.601562 31.828125 32.484375 32.003906 32.332031 32.15625 C 32.179688 32.308594 32.003906 32.425781 31.804688 32.507812 C 31.605469 32.59375 31.398438 32.632812 31.183594 32.632812 L 21.988281 32.632812 C 21.824219 32.632812 21.683594 32.691406 21.566406 32.808594 C 21.449219 32.925781 21.390625 33.066406 21.390625 33.230469 C 21.390625 33.398438 21.449219 33.539062 21.566406 33.65625 C 21.683594 33.769531 21.824219 33.828125 21.988281 33.828125 L 31.1875 33.828125 C 31.703125 33.828125 32.183594 33.695312 32.625 33.429688 C 33.070312 33.167969 33.414062 32.808594 33.660156 32.355469 L 41.617188 24.398438 C 41.9375 24.082031 42.320312 23.925781 42.765625 23.925781 L 42.765625 23.921875 C 42.984375 23.921875 43.191406 23.964844 43.390625 24.046875 C 43.589844 24.128906 43.765625 24.246094 43.917969 24.398438 C 44.070312 24.550781 44.1875 24.726562 44.269531 24.925781 C 44.351562 25.125 44.390625 25.332031 44.390625 25.550781 Z M 44.386719 25.550781 " fill-opacity="1" fill-rule="nonzero"/></g></svg>